<svg 
 xmlns="http://www.w3.org/2000/svg"
 xmlns:xlink="http://www.w3.org/1999/xlink"
 width="136px" height="37px">
<path fill-rule="evenodd"  fill="rgb(0, 0, 0)"
 d="M122.306,22.125 L122.306,36.000 L117.642,36.000 L117.642,22.125 L104.626,1.570 L110.065,1.570 L119.963,18.117 L129.860,1.570 L135.346,1.570 L122.306,22.125 ZM86.904,32.812 C90.281,32.812 92.852,31.492 94.618,28.852 C95.554,27.461 96.252,25.633 96.713,23.367 L101.260,23.367 C100.858,26.992 99.530,30.031 97.275,32.484 C94.572,35.437 90.927,36.914 86.339,36.914 C82.385,36.914 79.065,35.703 76.377,33.279 C72.840,30.074 71.072,25.125 71.072,18.433 C71.072,13.352 72.400,9.185 75.056,5.933 C77.929,2.400 81.890,0.633 86.940,0.633 C91.248,0.633 94.592,1.781 96.970,4.078 C99.348,6.375 100.669,8.985 100.931,11.906 L96.385,11.906 C95.878,9.688 94.869,7.930 93.358,6.633 C91.846,5.336 89.725,4.688 86.993,4.688 C83.663,4.688 80.974,5.880 78.926,8.265 C76.877,10.649 75.853,14.305 75.853,19.231 C75.853,23.266 76.778,26.538 78.628,29.048 C80.477,31.558 83.236,32.812 86.904,32.812 ZM59.775,25.687 L46.158,25.687 L42.431,36.000 L37.650,36.000 L50.611,1.570 L55.885,1.570 L68.377,36.000 L63.267,36.000 L59.775,25.687 ZM53.049,6.680 L47.494,21.891 L58.275,21.891 L53.049,6.680 ZM29.095,15.680 C29.095,14.977 29.111,13.813 29.142,12.188 C29.173,10.563 29.189,8.821 29.189,6.961 L19.359,36.000 L14.738,36.000 L4.814,6.961 L4.814,8.016 C4.814,8.859 4.838,10.145 4.885,11.871 C4.931,13.598 4.955,14.867 4.955,15.680 L4.955,36.000 L0.502,36.000 L0.502,1.570 L7.184,1.570 L17.084,30.680 L26.914,1.570 L33.549,1.570 L33.549,36.000 L29.095,36.000 L29.095,15.680 Z"/>
</svg>